<svg width="256" height="417" viewBox="0 0 256 417" fill="none" xmlns="http://www.w3.org/2000/svg">
<path d="M127.961 0L125.164 9.5L125.164 285.168L127.961 287.958L255.922 212.32L127.961 0Z" fill="#343434"/>
<path d="M127.96 0L0 212.32L127.96 287.958L127.96 154.158L127.96 0Z" fill="#8C8C8C"/>
<path d="M127.961 312.187L126.386 314.106L126.386 415.319L127.961 416.616L255.922 236.587L127.961 312.187Z" fill="#3C3C3B"/>
<path d="M127.96 416.616L127.96 312.187L0 236.587L127.96 416.616Z" fill="#8C8C8C"/>
<path d="M127.961 287.958L255.922 212.32L127.961 154.158L127.961 287.958Z" fill="#141414"/>
<path d="M0 212.32L127.96 287.958L127.96 154.158L0 212.32Z" fill="#393939"/>
</svg> 